<svg width="354" height="112" viewBox="0 0 354 112" fill="none" xmlns="http://www.w3.org/2000/svg">
<path d="M41.12 92.92C41.0133 92.9733 40.9067 93 40.8 93C40.6933 93 40.48 93 40.16 93C39.4133 93 38.5333 92.8667 37.52 92.6C36.56 92.3867 35.6 92.0933 34.64 91.72C33.7333 91.4 32.9333 91.0267 32.24 90.6C31.6 90.1733 31.2 89.8 31.04 89.48C30.9867 88.7333 30.96 87.96 30.96 87.16C30.96 86.36 30.96 85.5867 30.96 84.84C30.96 78.8667 31.3867 72.6267 32.24 66.12C33.1467 59.6133 34.6133 52.5733 36.64 45C36.8533 44.2533 37.0667 43.32 37.28 42.2C37.5467 41.0267 37.8133 39.7733 38.08 38.44C36.8 39.4533 35.28 41.08 33.52 43.32C31.76 45.5067 29.8933 48.12 27.92 51.16C26 54.1467 24.0533 57.4533 22.08 61.08C20.16 64.6533 18.4 68.3067 16.8 72.04C15.2 75.72 13.8133 79.3733 12.64 83C11.52 86.6267 10.8267 89.9867 10.56 93.08C8 92.3333 6.21333 91.5867 5.2 90.84C4.24 90.0933 3.76 89.1867 3.76 88.12C3.76 87.16 4.05333 85.8 4.64 84.04C5.22667 82.28 6.05333 80.2 7.12 77.8C8.18667 75.4 9.49333 72.7333 11.04 69.8C12.5867 66.8133 14.2933 63.6133 16.16 60.2C18.2933 56.3067 20.3733 52.6533 22.4 49.24C24.48 45.8267 26.5067 42.7333 28.48 39.96C30.4533 37.1867 32.3733 34.7867 34.24 32.76C36.16 30.7333 38.0533 29.1867 39.92 28.12C40.6667 28.12 41.6533 28.3067 42.88 28.68C44.16 29.0533 45.3867 29.5067 46.56 30.04C47.7867 30.5733 48.8533 31.1333 49.76 31.72C50.72 32.2533 51.2533 32.7067 51.36 33.08C50.6133 34.5733 49.7333 36.8133 48.72 39.8C47.7067 42.7867 46.6667 46.1733 45.6 49.96C44.5867 53.7467 43.6 57.7733 42.64 62.04C41.7333 66.2533 41.0133 70.3067 40.48 74.2C41.7067 71.2667 43.12 68.2267 44.72 65.08C46.3733 61.88 48.1067 58.7333 49.92 55.64C51.7333 52.4933 53.5733 49.4533 55.44 46.52C57.36 43.5867 59.2267 40.92 61.04 38.52C62.8533 36.0667 64.5333 33.9333 66.08 32.12C67.68 30.3067 69.0933 28.9733 70.32 28.12C71.0667 28.12 72.0533 28.3067 73.28 28.68C74.56 29.0533 75.7867 29.5067 76.96 30.04C78.1867 30.5733 79.2533 31.1333 80.16 31.72C81.12 32.2533 81.6533 32.7067 81.76 33.08C80.0533 36.12 78.56 39.8267 77.28 44.2C76 48.5733 74.9067 53.16 74 57.96C73.1467 62.76 72.48 67.5333 72 72.28C71.5733 76.9733 71.36 81.1867 71.36 84.92C71.36 86.1467 71.36 87.4267 71.36 88.76C71.36 90.0933 71.4133 91.48 71.52 92.92C70.7733 92.92 69.8667 92.8133 68.8 92.6C67.7867 92.44 66.7733 92.2 65.76 91.88C64.8 91.56 63.92 91.1867 63.12 90.76C62.32 90.3867 61.76 89.96 61.44 89.48C61.3867 88.7333 61.36 87.96 61.36 87.16C61.36 86.36 61.36 85.5867 61.36 84.84C61.36 78.8667 61.7867 72.6267 62.64 66.12C63.5467 59.6133 65.0133 52.5733 67.04 45C67.2533 44.2533 67.4933 43.24 67.76 41.96C68.0267 40.68 68.2933 39.3467 68.56 37.96C67.0667 38.7067 65.36 40.1467 63.44 42.28C61.5733 44.36 59.6533 46.92 57.68 49.96C55.76 52.9467 53.84 56.28 51.92 59.96C50.0533 63.64 48.3467 67.4 46.8 71.24C45.3067 75.0267 44.0267 78.8133 42.96 82.6C41.9467 86.3333 41.3333 89.7733 41.12 92.92Z" fill="black"/>
<path d="M94.8667 65.31H97.7767V84.21H108.787V87H94.8667V65.31ZM111.769 76.17C111.769 74.67 112.049 73.26 112.609 71.94C113.189 70.6 113.989 69.42 115.009 68.4C116.029 67.36 117.199 66.55 118.519 65.97C119.859 65.37 121.299 65.07 122.839 65.07C124.359 65.07 125.779 65.37 127.099 65.97C128.439 66.55 129.619 67.36 130.639 68.4C131.679 69.42 132.489 70.6 133.069 71.94C133.649 73.26 133.939 74.67 133.939 76.17C133.939 77.71 133.649 79.15 133.069 80.49C132.489 81.83 131.679 83.01 130.639 84.03C129.619 85.03 128.439 85.82 127.099 86.4C125.779 86.96 124.359 87.24 122.839 87.24C121.299 87.24 119.859 86.96 118.519 86.4C117.199 85.84 116.029 85.06 115.009 84.06C113.989 83.06 113.189 81.89 112.609 80.55C112.049 79.21 111.769 77.75 111.769 76.17ZM114.769 76.2C114.769 77.34 114.979 78.41 115.399 79.41C115.819 80.39 116.399 81.26 117.139 82.02C117.879 82.78 118.739 83.38 119.719 83.82C120.699 84.24 121.759 84.45 122.899 84.45C124.019 84.45 125.069 84.24 126.049 83.82C127.029 83.38 127.879 82.78 128.599 82.02C129.319 81.26 129.889 80.39 130.309 79.41C130.729 78.41 130.939 77.33 130.939 76.17C130.939 75.03 130.729 73.96 130.309 72.96C129.889 71.94 129.309 71.05 128.569 70.29C127.829 69.53 126.969 68.94 125.989 68.52C125.009 68.08 123.959 67.86 122.839 67.86C121.699 67.86 120.639 68.08 119.659 68.52C118.679 68.96 117.819 69.56 117.079 70.32C116.339 71.08 115.769 71.97 115.369 72.99C114.969 73.99 114.769 75.06 114.769 76.2ZM157.621 87.69L140.851 70.68L141.691 70.89L141.751 87H138.841V64.65H138.991L155.581 81.72L154.891 81.57L154.831 65.31H157.711V87.69H157.621ZM163.949 87V65.31H169.859C171.999 65.31 173.819 65.64 175.319 66.3C176.839 66.96 178.059 67.83 178.979 68.91C179.899 69.99 180.569 71.19 180.989 72.51C181.429 73.81 181.649 75.11 181.649 76.41C181.649 78.05 181.359 79.52 180.779 80.82C180.219 82.12 179.439 83.23 178.439 84.15C177.439 85.07 176.289 85.78 174.989 86.28C173.709 86.76 172.349 87 170.909 87H163.949ZM166.859 84.21H170.339C171.539 84.21 172.639 84.03 173.639 83.67C174.659 83.31 175.539 82.79 176.279 82.11C177.039 81.43 177.629 80.6 178.049 79.62C178.469 78.62 178.679 77.49 178.679 76.23C178.679 74.89 178.459 73.72 178.019 72.72C177.579 71.7 176.979 70.85 176.219 70.17C175.459 69.49 174.599 68.98 173.639 68.64C172.679 68.28 171.669 68.1 170.609 68.1H166.859V84.21ZM185.187 76.17C185.187 74.67 185.467 73.26 186.027 71.94C186.607 70.6 187.407 69.42 188.427 68.4C189.447 67.36 190.617 66.55 191.937 65.97C193.277 65.37 194.717 65.07 196.257 65.07C197.777 65.07 199.197 65.37 200.517 65.97C201.857 66.55 203.037 67.36 204.057 68.4C205.097 69.42 205.907 70.6 206.487 71.94C207.067 73.26 207.357 74.67 207.357 76.17C207.357 77.71 207.067 79.15 206.487 80.49C205.907 81.83 205.097 83.01 204.057 84.03C203.037 85.03 201.857 85.82 200.517 86.4C199.197 86.96 197.777 87.24 196.257 87.24C194.717 87.24 193.277 86.96 191.937 86.4C190.617 85.84 189.447 85.06 188.427 84.06C187.407 83.06 186.607 81.89 186.027 80.55C185.467 79.21 185.187 77.75 185.187 76.17ZM188.187 76.2C188.187 77.34 188.397 78.41 188.817 79.41C189.237 80.39 189.817 81.26 190.557 82.02C191.297 82.78 192.157 83.38 193.137 83.82C194.117 84.24 195.177 84.45 196.317 84.45C197.437 84.45 198.487 84.24 199.467 83.82C200.447 83.38 201.297 82.78 202.017 82.02C202.737 81.26 203.307 80.39 203.727 79.41C204.147 78.41 204.357 77.33 204.357 76.17C204.357 75.03 204.147 73.96 203.727 72.96C203.307 71.94 202.727 71.05 201.987 70.29C201.247 69.53 200.387 68.94 199.407 68.52C198.427 68.08 197.377 67.86 196.257 67.86C195.117 67.86 194.057 68.08 193.077 68.52C192.097 68.96 191.237 69.56 190.497 70.32C189.757 71.08 189.187 71.97 188.787 72.99C188.387 73.99 188.187 75.06 188.187 76.2ZM231.039 87.69L214.269 70.68L215.109 70.89L215.169 87H212.259V64.65H212.409L228.999 81.72L228.309 81.57L228.249 65.31H231.129V87.69H231.039Z" fill="black"/>
<path d="M94.8667 51V28.62H94.8967L106.267 44.76L105.037 44.52L116.377 28.62H116.437V51H113.557V35.22L113.737 36.69L105.547 48.27H105.487L97.1767 36.69L97.6867 35.34V51H94.8667ZM128.429 43.77L120.389 29.31H123.959L130.409 41.28L129.509 41.34L135.899 29.31H139.439L131.339 43.77V51H128.429V43.77ZM168.834 49.38C168.474 49.62 167.984 49.89 167.364 50.19C166.744 50.49 166.014 50.74 165.174 50.94C164.354 51.14 163.454 51.24 162.474 51.24C160.794 51.22 159.274 50.92 157.914 50.34C156.574 49.76 155.434 48.97 154.494 47.97C153.554 46.97 152.824 45.82 152.304 44.52C151.804 43.2 151.554 41.8 151.554 40.32C151.554 38.7 151.814 37.21 152.334 35.85C152.874 34.47 153.624 33.28 154.584 32.28C155.544 31.26 156.674 30.47 157.974 29.91C159.294 29.35 160.734 29.07 162.294 29.07C163.594 29.07 164.774 29.25 165.834 29.61C166.894 29.95 167.804 30.36 168.564 30.84L167.394 33.54C166.794 33.14 166.064 32.76 165.204 32.4C164.364 32.04 163.424 31.86 162.384 31.86C161.324 31.86 160.324 32.07 159.384 32.49C158.444 32.91 157.614 33.5 156.894 34.26C156.174 35.02 155.604 35.91 155.184 36.93C154.784 37.93 154.584 39.01 154.584 40.17C154.584 41.35 154.764 42.45 155.124 43.47C155.504 44.47 156.034 45.34 156.714 46.08C157.414 46.82 158.254 47.4 159.234 47.82C160.214 48.24 161.314 48.45 162.534 48.45C163.634 48.45 164.614 48.28 165.474 47.94C166.334 47.6 167.044 47.22 167.604 46.8L168.834 49.38ZM172.384 40.17C172.384 38.67 172.664 37.26 173.224 35.94C173.804 34.6 174.604 33.42 175.624 32.4C176.644 31.36 177.814 30.55 179.134 29.97C180.474 29.37 181.914 29.07 183.454 29.07C184.974 29.07 186.394 29.37 187.714 29.97C189.054 30.55 190.234 31.36 191.254 32.4C192.294 33.42 193.104 34.6 193.684 35.94C194.264 37.26 194.554 38.67 194.554 40.17C194.554 41.71 194.264 43.15 193.684 44.49C193.104 45.83 192.294 47.01 191.254 48.03C190.234 49.03 189.054 49.82 187.714 50.4C186.394 50.96 184.974 51.24 183.454 51.24C181.914 51.24 180.474 50.96 179.134 50.4C177.814 49.84 176.644 49.06 175.624 48.06C174.604 47.06 173.804 45.89 173.224 44.55C172.664 43.21 172.384 41.75 172.384 40.17ZM175.384 40.2C175.384 41.34 175.594 42.41 176.014 43.41C176.434 44.39 177.014 45.26 177.754 46.02C178.494 46.78 179.354 47.38 180.334 47.82C181.314 48.24 182.374 48.45 183.514 48.45C184.634 48.45 185.684 48.24 186.664 47.82C187.644 47.38 188.494 46.78 189.214 46.02C189.934 45.26 190.504 44.39 190.924 43.41C191.344 42.41 191.554 41.33 191.554 40.17C191.554 39.03 191.344 37.96 190.924 36.96C190.504 35.94 189.924 35.05 189.184 34.29C188.444 33.53 187.584 32.94 186.604 32.52C185.624 32.08 184.574 31.86 183.454 31.86C182.314 31.86 181.254 32.08 180.274 32.52C179.294 32.96 178.434 33.56 177.694 34.32C176.954 35.08 176.384 35.97 175.984 36.99C175.584 37.99 175.384 39.06 175.384 40.2ZM199.457 51V28.62H199.487L210.857 44.76L209.627 44.52L220.967 28.62H221.027V51H218.147V35.22L218.327 36.69L210.137 48.27H210.077L201.767 36.69L202.277 35.34V51H199.457ZM233.049 29.31C234.629 29.31 235.979 29.58 237.099 30.12C238.219 30.64 239.079 31.4 239.679 32.4C240.299 33.4 240.609 34.61 240.609 36.03C240.609 36.89 240.479 37.74 240.219 38.58C239.959 39.4 239.539 40.15 238.959 40.83C238.399 41.49 237.659 42.02 236.739 42.42C235.819 42.82 234.699 43.02 233.379 43.02H230.169V51H227.259V29.31H233.049ZM233.349 40.23C234.209 40.23 234.919 40.09 235.479 39.81C236.039 39.53 236.479 39.18 236.799 38.76C237.119 38.32 237.349 37.86 237.489 37.38C237.629 36.9 237.699 36.47 237.699 36.09C237.699 35.65 237.629 35.2 237.489 34.74C237.349 34.26 237.109 33.83 236.769 33.45C236.449 33.05 236.019 32.73 235.479 32.49C234.959 32.23 234.309 32.1 233.529 32.1H230.169V40.23H233.349ZM240.861 51L250.341 28.41H250.521L259.971 51H256.641L249.561 32.97L251.631 31.62L243.711 51H240.861ZM246.411 42.78H254.481L255.441 45.3H245.571L246.411 42.78ZM282.836 51.69L266.066 34.68L266.906 34.89L266.966 51H264.056V28.65H264.206L280.796 45.72L280.106 45.57L280.046 29.31H282.926V51.69H282.836ZM294.924 43.77L286.884 29.31H290.454L296.904 41.28L296.004 41.34L302.394 29.31H305.934L297.834 43.77V51H294.924V43.77Z" fill="#666666"/>
</svg>
